<svg width="60" height="22" viewBox="0 0 60 22" fill="none" xmlns="http://www.w3.org/2000/svg">
<path d="M18.852 9.252C18.852 10.516 18.632 11.692 18.192 12.78C17.76 13.868 17.148 14.816 16.356 15.624C15.564 16.424 14.608 17.052 13.488 17.508C12.376 17.964 11.14 18.192 9.78 18.192C8.42 18.192 7.18 17.964 6.06 17.508C4.94 17.052 3.98 16.424 3.18 15.624C2.388 14.816 1.772 13.868 1.332 12.78C0.9 11.692 0.684 10.516 0.684 9.252C0.684 7.988 0.9 6.812 1.332 5.724C1.772 4.636 2.388 3.692 3.18 2.892C3.98 2.092 4.94 1.464 6.06 1.008C7.18 0.552 8.42 0.323999 9.78 0.323999C11.14 0.323999 12.376 0.555999 13.488 1.02C14.608 1.476 15.564 2.104 16.356 2.904C17.148 3.704 17.76 4.648 18.192 5.736C18.632 6.824 18.852 7.996 18.852 9.252ZM14.7 9.252C14.7 8.388 14.588 7.612 14.364 6.924C14.14 6.228 13.816 5.64 13.392 5.16C12.976 4.68 12.464 4.312 11.856 4.056C11.248 3.8 10.556 3.672 9.78 3.672C8.996 3.672 8.296 3.8 7.68 4.056C7.072 4.312 6.556 4.68 6.132 5.16C5.716 5.64 5.396 6.228 5.172 6.924C4.948 7.612 4.836 8.388 4.836 9.252C4.836 10.124 4.948 10.908 5.172 11.604C5.396 12.292 5.716 12.876 6.132 13.356C6.556 13.836 7.072 14.204 7.68 14.46C8.296 14.708 8.996 14.832 9.78 14.832C10.556 14.832 11.248 14.708 11.856 14.46C12.464 14.204 12.976 13.836 13.392 13.356C13.816 12.876 14.14 12.292 14.364 11.604C14.588 10.908 14.7 10.124 14.7 9.252ZM27.4069 9.096C28.4629 9.096 29.2229 8.844 29.6869 8.34C30.1509 7.836 30.3829 7.132 30.3829 6.228C30.3829 5.828 30.3229 5.464 30.2029 5.136C30.0829 4.808 29.8989 4.528 29.6509 4.296C29.4109 4.056 29.1029 3.872 28.7269 3.744C28.3589 3.616 27.9189 3.552 27.4069 3.552H25.2949V9.096H27.4069ZM27.4069 0.516C28.6389 0.516 29.6949 0.664 30.5749 0.959999C31.4629 1.248 32.1909 1.648 32.7589 2.16C33.3349 2.672 33.7589 3.276 34.0309 3.972C34.3029 4.668 34.4389 5.42 34.4389 6.228C34.4389 7.1 34.2989 7.9 34.0189 8.628C33.7389 9.356 33.3109 9.98 32.7349 10.5C32.1589 11.02 31.4269 11.428 30.5389 11.724C29.6589 12.012 28.6149 12.156 27.4069 12.156H25.2949V18H21.2389V0.516H27.4069ZM42.1331 12.936C41.3891 12.968 40.7771 13.032 40.2971 13.128C39.8171 13.224 39.4371 13.344 39.1571 13.488C38.8771 13.632 38.6811 13.796 38.5691 13.98C38.4651 14.164 38.4131 14.364 38.4131 14.58C38.4131 15.004 38.5291 15.304 38.7611 15.48C38.9931 15.648 39.3331 15.732 39.7811 15.732C40.2611 15.732 40.6811 15.648 41.0411 15.48C41.4011 15.312 41.7651 15.04 42.1331 14.664V12.936ZM35.4371 7.284C36.1891 6.62 37.0211 6.128 37.9331 5.808C38.8531 5.48 39.8371 5.316 40.8851 5.316C41.6371 5.316 42.3131 5.44 42.9131 5.688C43.5211 5.928 44.0331 6.268 44.4491 6.708C44.8731 7.14 45.1971 7.656 45.4211 8.256C45.6451 8.856 45.7571 9.512 45.7571 10.224V18H44.0531C43.7011 18 43.4331 17.952 43.2491 17.856C43.0731 17.76 42.9251 17.56 42.8051 17.256L42.5411 16.572C42.2291 16.836 41.9291 17.068 41.6411 17.268C41.3531 17.468 41.0531 17.64 40.7411 17.784C40.4371 17.92 40.1091 18.02 39.7571 18.084C39.4131 18.156 39.0291 18.192 38.6051 18.192C38.0371 18.192 37.5211 18.12 37.0571 17.976C36.5931 17.824 36.1971 17.604 35.8691 17.316C35.5491 17.028 35.3011 16.672 35.1251 16.248C34.9491 15.816 34.8611 15.32 34.8611 14.76C34.8611 14.312 34.9731 13.86 35.1971 13.404C35.4211 12.94 35.8091 12.52 36.3611 12.144C36.9131 11.76 37.6571 11.44 38.5931 11.184C39.5291 10.928 40.7091 10.784 42.1331 10.752V10.224C42.1331 9.496 41.9811 8.972 41.6771 8.652C41.3811 8.324 40.9571 8.16 40.4051 8.16C39.9651 8.16 39.6051 8.208 39.3251 8.304C39.0451 8.4 38.7931 8.508 38.5691 8.628C38.3531 8.748 38.1411 8.856 37.9331 8.952C37.7251 9.048 37.4771 9.096 37.1891 9.096C36.9331 9.096 36.7171 9.032 36.5411 8.904C36.3651 8.776 36.2211 8.624 36.1091 8.448L35.4371 7.284ZM59.955 5.556L53.307 21.228C53.195 21.476 53.059 21.656 52.899 21.768C52.739 21.888 52.483 21.948 52.131 21.948H49.347L51.747 16.908L46.779 5.556H50.067C50.355 5.556 50.575 5.62 50.727 5.748C50.887 5.876 51.003 6.028 51.075 6.204L53.115 11.568C53.307 12.056 53.463 12.556 53.583 13.068C53.671 12.812 53.759 12.556 53.847 12.3C53.935 12.044 54.027 11.792 54.123 11.544L55.971 6.204C56.043 6.02 56.171 5.868 56.355 5.748C56.539 5.62 56.739 5.556 56.955 5.556H59.955Z" fill="#00AEB5"/>
</svg>
