<svg width="79" height="22" viewBox="0 0 79 22" fill="none" xmlns="http://www.w3.org/2000/svg">
<path d="M11.352 4.068C11.232 4.26 11.104 4.404 10.968 4.5C10.84 4.596 10.672 4.644 10.464 4.644C10.28 4.644 10.08 4.588 9.864 4.476C9.656 4.356 9.416 4.224 9.144 4.08C8.88 3.936 8.576 3.808 8.232 3.696C7.888 3.576 7.496 3.516 7.056 3.516C6.296 3.516 5.728 3.68 5.352 4.008C4.984 4.328 4.8 4.764 4.8 5.316C4.8 5.668 4.912 5.96 5.136 6.192C5.36 6.424 5.652 6.624 6.012 6.792C6.38 6.96 6.796 7.116 7.26 7.26C7.732 7.396 8.212 7.552 8.7 7.728C9.188 7.896 9.664 8.096 10.128 8.328C10.6 8.56 11.016 8.856 11.376 9.216C11.744 9.576 12.04 10.016 12.264 10.536C12.488 11.048 12.6 11.668 12.6 12.396C12.6 13.204 12.46 13.96 12.18 14.664C11.9 15.368 11.492 15.984 10.956 16.512C10.428 17.032 9.772 17.444 8.988 17.748C8.212 18.044 7.328 18.192 6.336 18.192C5.792 18.192 5.236 18.136 4.668 18.024C4.108 17.912 3.564 17.756 3.036 17.556C2.508 17.348 2.012 17.104 1.548 16.824C1.084 16.544 0.68 16.232 0.336 15.888L1.536 13.992C1.632 13.856 1.756 13.744 1.908 13.656C2.068 13.56 2.24 13.512 2.424 13.512C2.664 13.512 2.904 13.588 3.144 13.74C3.392 13.892 3.668 14.06 3.972 14.244C4.284 14.428 4.64 14.596 5.04 14.748C5.44 14.9 5.912 14.976 6.456 14.976C7.192 14.976 7.764 14.816 8.172 14.496C8.58 14.168 8.784 13.652 8.784 12.948C8.784 12.54 8.672 12.208 8.448 11.952C8.224 11.696 7.928 11.484 7.56 11.316C7.2 11.148 6.788 11 6.324 10.872C5.86 10.744 5.384 10.604 4.896 10.452C4.408 10.292 3.932 10.1 3.468 9.876C3.004 9.644 2.588 9.344 2.22 8.976C1.86 8.6 1.568 8.136 1.344 7.584C1.12 7.024 1.008 6.336 1.008 5.52C1.008 4.864 1.14 4.224 1.404 3.6C1.668 2.976 2.056 2.42 2.568 1.932C3.08 1.444 3.708 1.056 4.452 0.767999C5.196 0.471999 6.048 0.323999 7.008 0.323999C7.544 0.323999 8.064 0.368 8.568 0.456C9.08 0.536 9.564 0.659999 10.02 0.827999C10.476 0.987999 10.9 1.184 11.292 1.416C11.692 1.64 12.048 1.896 12.36 2.184L11.352 4.068ZM20.805 12.936C20.061 12.968 19.449 13.032 18.969 13.128C18.489 13.224 18.109 13.344 17.829 13.488C17.549 13.632 17.353 13.796 17.241 13.98C17.137 14.164 17.085 14.364 17.085 14.58C17.085 15.004 17.201 15.304 17.433 15.48C17.665 15.648 18.005 15.732 18.453 15.732C18.933 15.732 19.353 15.648 19.713 15.48C20.073 15.312 20.437 15.04 20.805 14.664V12.936ZM14.109 7.284C14.861 6.62 15.693 6.128 16.605 5.808C17.525 5.48 18.509 5.316 19.557 5.316C20.309 5.316 20.985 5.44 21.585 5.688C22.193 5.928 22.705 6.268 23.121 6.708C23.545 7.14 23.869 7.656 24.093 8.256C24.317 8.856 24.429 9.512 24.429 10.224V18H22.725C22.373 18 22.105 17.952 21.921 17.856C21.745 17.76 21.597 17.56 21.477 17.256L21.213 16.572C20.901 16.836 20.601 17.068 20.313 17.268C20.025 17.468 19.725 17.64 19.413 17.784C19.109 17.92 18.781 18.02 18.429 18.084C18.085 18.156 17.701 18.192 17.277 18.192C16.709 18.192 16.193 18.12 15.729 17.976C15.265 17.824 14.869 17.604 14.541 17.316C14.221 17.028 13.973 16.672 13.797 16.248C13.621 15.816 13.533 15.32 13.533 14.76C13.533 14.312 13.645 13.86 13.869 13.404C14.093 12.94 14.481 12.52 15.033 12.144C15.585 11.76 16.329 11.44 17.265 11.184C18.201 10.928 19.381 10.784 20.805 10.752V10.224C20.805 9.496 20.653 8.972 20.349 8.652C20.053 8.324 19.629 8.16 19.077 8.16C18.637 8.16 18.277 8.208 17.997 8.304C17.717 8.4 17.465 8.508 17.241 8.628C17.025 8.748 16.813 8.856 16.605 8.952C16.397 9.048 16.149 9.096 15.861 9.096C15.605 9.096 15.389 9.032 15.213 8.904C15.037 8.776 14.893 8.624 14.781 8.448L14.109 7.284ZM26.8069 18V5.556H29.1109C29.5749 5.556 29.8789 5.764 30.0229 6.18L30.2269 6.852C30.4349 6.636 30.6509 6.44 30.8749 6.264C31.0989 6.08 31.3389 5.924 31.5949 5.796C31.8589 5.66 32.1389 5.556 32.4349 5.484C32.7389 5.404 33.0709 5.364 33.4309 5.364C34.1829 5.364 34.8029 5.56 35.2909 5.952C35.7869 6.336 36.1629 6.852 36.4189 7.5C36.6269 7.116 36.8789 6.788 37.1749 6.516C37.4789 6.244 37.8029 6.024 38.1469 5.856C38.4989 5.688 38.8669 5.564 39.2509 5.484C39.6429 5.404 40.0309 5.364 40.4149 5.364C41.1269 5.364 41.7589 5.472 42.3109 5.688C42.8629 5.896 43.3229 6.204 43.6909 6.612C44.0669 7.012 44.3509 7.508 44.5429 8.1C44.7349 8.684 44.8309 9.348 44.8309 10.092V18H41.1109V10.092C41.1109 8.804 40.5589 8.16 39.4549 8.16C38.9509 8.16 38.5309 8.328 38.1949 8.664C37.8669 8.992 37.7029 9.468 37.7029 10.092V18H33.9829V10.092C33.9829 9.38 33.8429 8.88 33.5629 8.592C33.2829 8.304 32.8709 8.16 32.3269 8.16C31.9909 8.16 31.6709 8.236 31.3669 8.388C31.0709 8.54 30.7909 8.744 30.5269 9V18H26.8069ZM50.9409 14.616C51.2209 14.92 51.5249 15.136 51.8529 15.264C52.1809 15.392 52.5249 15.456 52.8849 15.456C53.2289 15.456 53.5449 15.388 53.8329 15.252C54.1209 15.116 54.3689 14.9 54.5769 14.604C54.7929 14.3 54.9609 13.908 55.0809 13.428C55.2009 12.948 55.2609 12.364 55.2609 11.676C55.2609 11.02 55.2129 10.468 55.1169 10.02C55.0209 9.572 54.8849 9.212 54.7089 8.94C54.5409 8.66 54.3369 8.46 54.0969 8.34C53.8569 8.22 53.5889 8.16 53.2929 8.16C52.7489 8.16 52.3009 8.26 51.9489 8.46C51.5969 8.66 51.2609 8.952 50.9409 9.336V14.616ZM50.7129 7.092C51.2009 6.572 51.7529 6.148 52.3689 5.82C52.9929 5.484 53.7329 5.316 54.5889 5.316C55.2369 5.316 55.8369 5.46 56.3889 5.748C56.9409 6.036 57.4169 6.452 57.8169 6.996C58.2169 7.54 58.5289 8.208 58.7529 9C58.9849 9.784 59.1009 10.676 59.1009 11.676C59.1009 12.612 58.9689 13.476 58.7049 14.268C58.4489 15.06 58.0849 15.748 57.6129 16.332C57.1489 16.916 56.5889 17.372 55.9329 17.7C55.2849 18.028 54.5649 18.192 53.7729 18.192C53.1249 18.192 52.5809 18.1 52.1409 17.916C51.7009 17.732 51.3009 17.484 50.9409 17.172V21.948H47.2209V5.556H49.5249C49.9889 5.556 50.2929 5.764 50.4369 6.18L50.7129 7.092ZM64.7456 0.0359988V18H61.0256V0.0359988H64.7456ZM75 10.284C75 9.988 74.96 9.7 74.88 9.42C74.808 9.14 74.684 8.892 74.508 8.676C74.34 8.452 74.116 8.272 73.836 8.136C73.556 8 73.216 7.932 72.816 7.932C72.112 7.932 71.56 8.136 71.16 8.544C70.76 8.944 70.496 9.524 70.368 10.284H75ZM70.32 12.444C70.44 13.484 70.756 14.24 71.268 14.712C71.78 15.176 72.44 15.408 73.248 15.408C73.68 15.408 74.052 15.356 74.364 15.252C74.676 15.148 74.952 15.032 75.192 14.904C75.44 14.776 75.664 14.66 75.864 14.556C76.072 14.452 76.288 14.4 76.512 14.4C76.808 14.4 77.032 14.508 77.184 14.724L78.264 16.056C77.88 16.496 77.464 16.856 77.016 17.136C76.576 17.408 76.12 17.624 75.648 17.784C75.184 17.936 74.716 18.04 74.244 18.096C73.78 18.16 73.336 18.192 72.912 18.192C72.04 18.192 71.22 18.052 70.452 17.772C69.692 17.484 69.024 17.06 68.448 16.5C67.88 15.94 67.428 15.244 67.092 14.412C66.764 13.58 66.6 12.612 66.6 11.508C66.6 10.676 66.74 9.888 67.02 9.144C67.308 8.4 67.716 7.748 68.244 7.188C68.78 6.628 69.424 6.184 70.176 5.856C70.936 5.528 71.792 5.364 72.744 5.364C73.568 5.364 74.32 5.492 75 5.748C75.688 6.004 76.276 6.376 76.764 6.864C77.26 7.352 77.644 7.952 77.916 8.664C78.196 9.368 78.336 10.168 78.336 11.064C78.336 11.344 78.324 11.572 78.3 11.748C78.276 11.924 78.232 12.064 78.168 12.168C78.104 12.272 78.016 12.344 77.904 12.384C77.8 12.424 77.664 12.444 77.496 12.444H70.32Z" fill="#00AEB5"/>
</svg>
